<svg xmlns="http://www.w3.org/2000/svg" width="62" height="62" viewBox="0 0 62 62" fill="none"><g id="Diagnosis"><path id="Vector" d="M24.361 31.6319H5.39285C4.7221 31.6319 4.07882 31.3654 3.60452 30.8911C3.13023 30.4168 2.86377 29.7736 2.86377 29.1028V21.5156C2.86377 20.1741 3.39668 18.8875 4.34527 17.9389C5.29386 16.9903 6.58043 16.4574 7.92194 16.4574H45.8582C47.1997 16.4574 48.4863 16.9903 49.4349 17.9389C50.3834 18.8875 50.9164 20.1741 50.9164 21.5156V22.7801" fill="#009DFF"></path><path id="Vector_2" d="M9.18652 16.4576L10.0641 8.45053C10.1694 7.18612 10.7461 6.00746 11.6797 5.14831C12.6134 4.28916 13.8358 3.81226 15.1046 3.81219H38.6756C39.9444 3.81226 41.1669 4.28916 42.1005 5.14831C43.0341 6.00746 43.6108 7.18612 43.7161 8.45053L44.5937 16.4576" stroke="#009DFF" stroke-width="3" stroke-linecap="round" stroke-linejoin="round"></path><path id="Vector_3" d="M7.92236 24.0452C7.92236 24.716 8.18882 25.3592 8.66311 25.8335C9.13741 26.3078 9.78069 26.5743 10.4514 26.5743C11.1222 26.5743 11.7655 26.3078 12.2398 25.8335C12.7141 25.3592 12.9805 24.716 12.9805 24.0452C12.9805 23.3744 12.7141 22.7312 12.2398 22.2569C11.7655 21.7826 11.1222 21.5161 10.4514 21.5161C9.78069 21.5161 9.13741 21.7826 8.66311 22.2569C8.18882 22.7312 7.92236 23.3744 7.92236 24.0452Z" stroke="#FEFEFE" stroke-linecap="round" stroke-linejoin="round"></path><path id="Vector_4" d="M15.5096 31.632V35.4256C15.5096 36.4317 15.1099 37.3966 14.3985 38.1081C13.687 38.8195 12.7221 39.2192 11.716 39.2192C10.7099 39.2192 9.74493 38.8195 9.03349 38.1081C8.32205 37.3966 7.92236 36.4317 7.92236 35.4256V31.632" stroke="#009DFF" stroke-width="3" stroke-linecap="round" stroke-linejoin="round"></path><path id="Vector_5" d="M2.86377 11.3995L9.18648 16.4576" stroke="#009DFF" stroke-width="3" stroke-linecap="round" stroke-linejoin="round"></path><path id="Vector_6" d="M50.9165 11.3995L44.5938 16.4576" stroke="#009DFF" stroke-width="3" stroke-linecap="round" stroke-linejoin="round"></path><path id="Vector_7" d="M28.1548 41.7485C28.1548 45.7731 29.7535 49.6328 32.5993 52.4785C35.4451 55.3243 39.3048 56.923 43.3293 56.923C47.3538 56.923 51.2135 55.3243 54.0593 52.4785C56.905 49.6328 58.5038 45.7731 58.5038 41.7485C58.5038 37.724 56.905 33.8643 54.0593 31.0185C51.2135 28.1728 47.3538 26.574 43.3293 26.574C39.3048 26.574 35.4451 28.1728 32.5993 31.0185C29.7535 33.8643 28.1548 37.724 28.1548 41.7485Z" stroke="#009DFF" stroke-width="3" stroke-linecap="round" stroke-linejoin="round"></path><path id="Vector_8" d="M50.0918 37.3378L42.7448 47.1329C42.5814 47.35 42.3734 47.5296 42.1347 47.6595C41.896 47.7894 41.6323 47.8667 41.3612 47.8861C41.0902 47.9055 40.8181 47.8666 40.5634 47.772C40.3087 47.6774 40.0771 47.5294 39.8844 47.3378L36.0908 43.5441" stroke="#009DFF" stroke-width="3" stroke-linecap="round" stroke-linejoin="round"></path></g></svg>